<mxfile host="app.diagrams.net" modified="2024-03-13T07:47:09.761Z" agent="Mozilla/5.0 (Macintosh; Intel Mac OS X 10.15; rv:123.0) Gecko/20100101 Firefox/123.0" version="23.0.1" etag="hu6sBzV6iMQoi8puJVB-" type="github">
  <diagram name="Page-1" id="IQn_RGmjUxphnMO-temq">
    <mxGraphModel>
      <root>
        <mxCell id="0" />
        <mxCell id="1" parent="0" />
      </root>
    </mxGraphModel>
  </diagram>
</mxfile>
